# xmcd CD database file
#
# Track frame offsets:
#	150
#	15268
#	29667
#	49512
#	71111
#	87272
#	92020
#	122591
#	135955
#	153954
#	180903
#
# Disc length: 2695 seconds
#
# Revision: 0
# Processed by: cddbd v1.5.2PL0 Copyright (c) Steve Scherf et al.
# Submitted via: CDex 1.51
#
DISCID=7b0a850b
DTITLE=Astro Can Caravan - Planet Caravan
DYEAR=2010
DGENRE=Jazz
TTITLE0=Meru
TTITLE1=Mozzarella legs
TTITLE2=Moonrabbit
TTITLE3=Athatoolagooloo
TTITLE4=The ghost of the grotto
TTITLE5=New year´s eve waltz
TTITLE6=Stars
TTITLE7=Meteor shower gel
TTITLE8=Taia
TTITLE9=The dissappearance of the megafauna
TTITLE10=Bonus
EXTD=YEAR: 2010
EXTT0=
EXTT1=
EXTT2=
EXTT3=
EXTT4=
EXTT5=
EXTT6=
EXTT7=
EXTT8=
EXTT9=
EXTT10=
PLAYORDER=
